name C:/MyDriveSym/Projects/mobilecap/Data\Session20210819_0002\mocap\ForceDataProcessed\walkingTS2_forces.mot
datacolumns 19
datarows 9
range 0.35200000 0.35600000
endheader 
time	R_ground_force_vx	R_ground_force_vy	R_ground_force_vz	R_ground_force_px	R_ground_force_py	R_ground_force_pz	R_ground_torque_x	R_ground_torque_y	R_ground_torque_z	L_ground_force_vx	L_ground_force_vy	L_ground_force_vz	L_ground_force_px	L_ground_force_py	L_ground_force_pz	L_ground_torque_x	L_ground_torque_y	L_ground_torque_z	
          0.35200000	        -12.61702800	        459.02640300	        -14.97061200	          0.20610600	          0.00600000	         -0.16807100	          0.00000000	         -3.32859200	          0.00000000	          0.00000000	          0.00000000	          0.00000000	          0.67258600	          0.00000000	         -0.22985100	          0.00000000	          0.00000000	          0.00000000	
          0.35250000	        -12.43507700	        458.95583800	        -14.96760900	          0.20625800	          0.00600000	         -0.16805700	          0.00000000	         -3.33691800	          0.00000000	          0.00000000	          0.00000000	          0.00000000	          0.67258600	          0.00000000	         -0.22985100	          0.00000000	          0.00000000	          0.00000000	
          0.35300000	        -12.25405900	        458.89225800	        -14.96506900	          0.20641000	          0.00600000	         -0.16804400	          0.00000000	         -3.34524000	          0.00000000	          0.00000000	          0.00000000	          0.00000000	          0.67258600	          0.00000000	         -0.22985100	          0.00000000	          0.00000000	          0.00000000	
          0.35350000	        -12.07396300	        458.83565900	        -14.96299300	          0.20656300	          0.00600000	         -0.16803100	          0.00000000	         -3.35356000	          0.00000000	          0.00000000	          0.00000000	          0.00000000	          0.67258600	          0.00000000	         -0.22985100	          0.00000000	          0.00000000	          0.00000000	
          0.35400000	        -11.89477800	        458.78603400	        -14.96138200	          0.20671600	          0.00600000	         -0.16801700	          0.00000000	         -3.36187800	          0.00000000	          0.00000000	          0.00000000	          0.00000000	          0.67258600	          0.00000000	         -0.22985100	          0.00000000	          0.00000000	          0.00000000	
          0.35450000	        -11.71649400	        458.74337900	        -14.96023800	          0.20686900	          0.00600000	         -0.16800400	          0.00000000	         -3.37019200	          0.00000000	          0.00000000	          0.00000000	          0.00000000	          0.67258600	          0.00000000	         -0.22985100	          0.00000000	          0.00000000	          0.00000000	
          0.35500000	        -11.53910100	        458.70768800	        -14.95956100	          0.20702300	          0.00600000	         -0.16799000	          0.00000000	         -3.37850300	          0.00000000	          0.00000000	          0.00000000	          0.00000000	          0.67258600	          0.00000000	         -0.22985100	          0.00000000	          0.00000000	          0.00000000	
          0.35550000	        -11.36258700	        458.67895300	        -14.95935200	          0.20717700	          0.00600000	         -0.16797700	          0.00000000	         -3.38681200	          0.00000000	          0.00000000	          0.00000000	          0.00000000	          0.67258600	          0.00000000	         -0.22985100	          0.00000000	          0.00000000	          0.00000000	
          0.35600000	        -11.18694300	        458.65716900	        -14.95961300	          0.20733100	          0.00600000	         -0.16796300	          0.00000000	         -3.39511700	          0.00000000	          0.00000000	          0.00000000	          0.00000000	          0.67258600	          0.00000000	         -0.22985100	          0.00000000	          0.00000000	          0.00000000	
